<?xml version="1.0" encoding="utf-8" standalone="no"?>
<!DOCTYPE svg PUBLIC "-//W3C//DTD SVG 1.1//EN"
  "http://www.w3.org/Graphics/SVG/1.1/DTD/svg11.dtd">
<svg xmlns:xlink="http://www.w3.org/1999/xlink" width="864pt" height="428.544pt" viewBox="0 0 864 428.544" xmlns="http://www.w3.org/2000/svg" version="1.1">
 <metadata>
  <rdf:RDF xmlns:dc="http://purl.org/dc/elements/1.1/" xmlns:cc="http://creativecommons.org/ns#" xmlns:rdf="http://www.w3.org/1999/02/22-rdf-syntax-ns#">
   <cc:Work>
    <dc:type rdf:resource="http://purl.org/dc/dcmitype/StillImage"/>
    <dc:date>2026-04-28T09:48:45.205678</dc:date>
    <dc:format>image/svg+xml</dc:format>
    <dc:creator>
     <cc:Agent>
      <dc:title>Matplotlib v3.7.2, https://matplotlib.org/</dc:title>
     </cc:Agent>
    </dc:creator>
   </cc:Work>
  </rdf:RDF>
 </metadata>
 <defs>
  <style type="text/css">*{stroke-linejoin: round; stroke-linecap: butt}</style>
 </defs>
 <g id="figure_1">
  <g id="patch_1">
   <path d="M 0 428.544 
L 864 428.544 
L 864 0 
L 0 0 
z
" style="fill: #ffffff"/>
  </g>
  <g id="axes_1">
   <g id="patch_2">
    <path d="M 86.4 178.444177 
L 846.72 178.444177 
L 846.72 8.57088 
L 86.4 8.57088 
z
" style="fill: #ffffff"/>
   </g>
   <g id="matplotlib.axis_1">
    <g id="xtick_1">
     <g id="line2d_1">
      <path d="M 86.4 178.444177 
L 86.4 8.57088 
" clip-path="url(#p7c19b909b7)" style="fill: none; stroke-dasharray: 2.96,1.28; stroke-dashoffset: 0; stroke: #b0b0b0; stroke-opacity: 0.18; stroke-width: 0.8"/>
     </g>
     <g id="line2d_2">
      <defs>
       <path id="ma27231dcb6" d="M 0 0 
L 0 4.5 
" style="stroke: #000000; stroke-width: 1.4"/>
      </defs>
      <g>
       <use xlink:href="#ma27231dcb6" x="86.4" y="178.444177" style="stroke: #000000; stroke-width: 1.4"/>
      </g>
     </g>
    </g>
    <g id="xtick_2">
     <g id="line2d_3">
      <path d="M 235.045161 178.444177 
L 235.045161 8.57088 
" clip-path="url(#p7c19b909b7)" style="fill: none; stroke-dasharray: 2.96,1.28; stroke-dashoffset: 0; stroke: #b0b0b0; stroke-opacity: 0.18; stroke-width: 0.8"/>
     </g>
     <g id="line2d_4">
      <g>
       <use xlink:href="#ma27231dcb6" x="235.045161" y="178.444177" style="stroke: #000000; stroke-width: 1.4"/>
      </g>
     </g>
    </g>
    <g id="xtick_3">
     <g id="line2d_5">
      <path d="M 383.690323 178.444177 
L 383.690323 8.57088 
" clip-path="url(#p7c19b909b7)" style="fill: none; stroke-dasharray: 2.96,1.28; stroke-dashoffset: 0; stroke: #b0b0b0; stroke-opacity: 0.18; stroke-width: 0.8"/>
     </g>
     <g id="line2d_6">
      <g>
       <use xlink:href="#ma27231dcb6" x="383.690323" y="178.444177" style="stroke: #000000; stroke-width: 1.4"/>
      </g>
     </g>
    </g>
    <g id="xtick_4">
     <g id="line2d_7">
      <path d="M 532.335484 178.444177 
L 532.335484 8.57088 
" clip-path="url(#p7c19b909b7)" style="fill: none; stroke-dasharray: 2.96,1.28; stroke-dashoffset: 0; stroke: #b0b0b0; stroke-opacity: 0.18; stroke-width: 0.8"/>
     </g>
     <g id="line2d_8">
      <g>
       <use xlink:href="#ma27231dcb6" x="532.335484" y="178.444177" style="stroke: #000000; stroke-width: 1.4"/>
      </g>
     </g>
    </g>
    <g id="xtick_5">
     <g id="line2d_9">
      <path d="M 680.980645 178.444177 
L 680.980645 8.57088 
" clip-path="url(#p7c19b909b7)" style="fill: none; stroke-dasharray: 2.96,1.28; stroke-dashoffset: 0; stroke: #b0b0b0; stroke-opacity: 0.18; stroke-width: 0.8"/>
     </g>
     <g id="line2d_10">
      <g>
       <use xlink:href="#ma27231dcb6" x="680.980645" y="178.444177" style="stroke: #000000; stroke-width: 1.4"/>
      </g>
     </g>
    </g>
    <g id="xtick_6">
     <g id="line2d_11">
      <path d="M 829.625806 178.444177 
L 829.625806 8.57088 
" clip-path="url(#p7c19b909b7)" style="fill: none; stroke-dasharray: 2.96,1.28; stroke-dashoffset: 0; stroke: #b0b0b0; stroke-opacity: 0.18; stroke-width: 0.8"/>
     </g>
     <g id="line2d_12">
      <g>
       <use xlink:href="#ma27231dcb6" x="829.625806" y="178.444177" style="stroke: #000000; stroke-width: 1.4"/>
      </g>
     </g>
    </g>
   </g>
   <g id="matplotlib.axis_2">
    <g id="ytick_1">
     <g id="line2d_13">
      <path d="M 86.4 178.444177 
L 846.72 178.444177 
" clip-path="url(#p7c19b909b7)" style="fill: none; stroke-dasharray: 2.96,1.28; stroke-dashoffset: 0; stroke: #b0b0b0; stroke-opacity: 0.18; stroke-width: 0.8"/>
     </g>
     <g id="line2d_14">
      <defs>
       <path id="mf0de79d70f" d="M 0 0 
L -4.5 0 
" style="stroke: #000000; stroke-width: 1.4"/>
      </defs>
      <g>
       <use xlink:href="#mf0de79d70f" x="86.4" y="178.444177" style="stroke: #000000; stroke-width: 1.4"/>
      </g>
     </g>
     <g id="text_1">
      <!-- 0.00 -->
      <g transform="translate(50.4 183.741677) scale(0.16 -0.16)">
       <defs>
        <path id="TimesNewRomanPS-BoldMT-30" d="M 2966 2119 
Q 2966 1484 2788 934 
Q 2681 597 2501 381 
Q 2322 166 2094 39 
Q 1866 -88 1597 -88 
Q 1291 -88 1044 68 
Q 797 225 606 516 
Q 469 728 366 1081 
Q 231 1559 231 2069 
Q 231 2759 425 3338 
Q 584 3816 909 4070 
Q 1234 4325 1597 4325 
Q 1966 4325 2286 4073 
Q 2606 3822 2756 3397 
Q 2966 2813 2966 2119 
z
M 2003 2125 
Q 2003 3238 1991 3422 
Q 1959 3856 1841 4009 
Q 1763 4109 1588 4109 
Q 1453 4109 1375 4034 
Q 1259 3925 1218 3648 
Q 1178 3372 1178 1719 
Q 1178 819 1241 513 
Q 1288 291 1375 216 
Q 1463 141 1606 141 
Q 1763 141 1841 241 
Q 1972 416 1991 781 
L 2003 2125 
z
" transform="scale(0.015625)"/>
        <path id="TimesNewRomanPS-BoldMT-2e" d="M 800 963 
Q 1019 963 1170 809 
Q 1322 656 1322 441 
Q 1322 225 1169 73 
Q 1016 -78 800 -78 
Q 584 -78 432 73 
Q 281 225 281 441 
Q 281 656 432 809 
Q 584 963 800 963 
z
" transform="scale(0.015625)"/>
       </defs>
       <use xlink:href="#TimesNewRomanPS-BoldMT-30"/>
       <use xlink:href="#TimesNewRomanPS-BoldMT-2e" x="50"/>
       <use xlink:href="#TimesNewRomanPS-BoldMT-30" x="75"/>
       <use xlink:href="#TimesNewRomanPS-BoldMT-30" x="125"/>
      </g>
     </g>
    </g>
    <g id="ytick_2">
     <g id="line2d_15">
      <path d="M 86.4 93.507529 
L 846.72 93.507529 
" clip-path="url(#p7c19b909b7)" style="fill: none; stroke-dasharray: 2.96,1.28; stroke-dashoffset: 0; stroke: #b0b0b0; stroke-opacity: 0.18; stroke-width: 0.8"/>
     </g>
     <g id="line2d_16">
      <g>
       <use xlink:href="#mf0de79d70f" x="86.4" y="93.507529" style="stroke: #000000; stroke-width: 1.4"/>
      </g>
     </g>
     <g id="text_2">
      <!-- 0.50 -->
      <g transform="translate(50.4 98.805029) scale(0.16 -0.16)">
       <defs>
        <path id="TimesNewRomanPS-BoldMT-35" d="M 975 4238 
L 2959 4238 
L 2644 3431 
L 975 3431 
L 816 3009 
Q 1894 2969 2475 2472 
Q 2953 2063 2953 1453 
Q 2953 1063 2731 689 
Q 2509 316 2106 114 
Q 1703 -88 1222 -88 
Q 703 -88 425 106 
Q 231 244 231 419 
Q 231 553 332 656 
Q 434 759 569 759 
Q 691 759 816 709 
Q 941 659 1244 447 
Q 1434 316 1572 266 
Q 1669 228 1791 228 
Q 2047 228 2226 415 
Q 2406 603 2406 866 
Q 2406 1416 1856 1759 
Q 1306 2103 469 2103 
Q 384 2103 216 2100 
L 975 4238 
z
" transform="scale(0.015625)"/>
       </defs>
       <use xlink:href="#TimesNewRomanPS-BoldMT-30"/>
       <use xlink:href="#TimesNewRomanPS-BoldMT-2e" x="50"/>
       <use xlink:href="#TimesNewRomanPS-BoldMT-35" x="75"/>
       <use xlink:href="#TimesNewRomanPS-BoldMT-30" x="125"/>
      </g>
     </g>
    </g>
    <g id="ytick_3">
     <g id="line2d_17">
      <path d="M 86.4 8.57088 
L 846.72 8.57088 
" clip-path="url(#p7c19b909b7)" style="fill: none; stroke-dasharray: 2.96,1.28; stroke-dashoffset: 0; stroke: #b0b0b0; stroke-opacity: 0.18; stroke-width: 0.8"/>
     </g>
     <g id="line2d_18">
      <g>
       <use xlink:href="#mf0de79d70f" x="86.4" y="8.57088" style="stroke: #000000; stroke-width: 1.4"/>
      </g>
     </g>
     <g id="text_3">
      <!-- 1.00 -->
      <g transform="translate(50.4 13.86838) scale(0.16 -0.16)">
       <defs>
        <path id="TimesNewRomanPS-BoldMT-31" d="M 2084 4325 
L 2084 859 
Q 2084 469 2118 361 
Q 2153 253 2262 184 
Q 2372 116 2613 116 
L 2709 116 
L 2709 0 
L 478 0 
L 478 116 
L 591 116 
Q 863 116 978 178 
Q 1094 241 1134 350 
Q 1175 459 1175 859 
L 1175 3056 
Q 1175 3350 1147 3423 
Q 1119 3497 1042 3548 
Q 966 3600 866 3600 
Q 706 3600 478 3500 
L 422 3613 
L 1981 4325 
L 2084 4325 
z
" transform="scale(0.015625)"/>
       </defs>
       <use xlink:href="#TimesNewRomanPS-BoldMT-31"/>
       <use xlink:href="#TimesNewRomanPS-BoldMT-2e" x="50"/>
       <use xlink:href="#TimesNewRomanPS-BoldMT-30" x="75"/>
       <use xlink:href="#TimesNewRomanPS-BoldMT-30" x="125"/>
      </g>
     </g>
    </g>
    <g id="text_4">
     <!-- X Probability -->
     <g transform="translate(42.9475 139.811279) rotate(-90) scale(0.16 -0.16)">
      <defs>
       <path id="TimesNewRomanPS-BoldMT-58" d="M 2703 2484 
L 3872 750 
Q 4163 319 4286 226 
Q 4409 134 4578 116 
L 4578 0 
L 2513 0 
L 2513 116 
Q 2759 134 2831 190 
Q 2903 247 2903 328 
Q 2903 384 2881 428 
Q 2838 522 2663 778 
L 2044 1694 
L 1397 903 
Q 1106 544 1106 416 
Q 1106 325 1181 247 
Q 1256 169 1403 134 
Q 1469 116 1672 116 
L 1672 0 
L 44 0 
L 44 116 
Q 322 156 481 266 
Q 691 409 1066 866 
L 1906 1891 
L 828 3475 
Q 563 3866 525 3909 
Q 441 4013 359 4056 
Q 278 4100 134 4122 
L 134 4238 
L 2238 4238 
L 2238 4122 
L 2131 4122 
Q 1950 4122 1878 4064 
Q 1806 4006 1806 3919 
Q 1806 3850 1828 3800 
L 2044 3475 
L 2569 2675 
L 3016 3222 
Q 3359 3644 3359 3813 
Q 3359 3897 3311 3969 
Q 3263 4041 3172 4081 
Q 3081 4122 2891 4122 
L 2891 4238 
L 4450 4238 
L 4450 4122 
Q 4266 4119 4153 4076 
Q 4041 4034 3913 3919 
Q 3831 3844 3506 3453 
L 2703 2484 
z
" transform="scale(0.015625)"/>
       <path id="TimesNewRomanPS-BoldMT-20" transform="scale(0.015625)"/>
       <path id="TimesNewRomanPS-BoldMT-50" d="M 1728 1919 
L 1728 744 
Q 1728 400 1770 311 
Q 1813 222 1920 169 
Q 2028 116 2316 116 
L 2316 0 
L 163 0 
L 163 116 
Q 456 116 561 170 
Q 666 225 708 312 
Q 750 400 750 744 
L 750 3494 
Q 750 3838 708 3927 
Q 666 4016 559 4069 
Q 453 4122 163 4122 
L 163 4238 
L 2009 4238 
Q 2922 4238 3319 3913 
Q 3716 3588 3716 3100 
Q 3716 2688 3459 2394 
Q 3203 2100 2753 1994 
Q 2450 1919 1728 1919 
z
M 1728 3994 
L 1728 2163 
Q 1831 2156 1884 2156 
Q 2266 2156 2472 2382 
Q 2678 2609 2678 3084 
Q 2678 3556 2472 3775 
Q 2266 3994 1856 3994 
L 1728 3994 
z
" transform="scale(0.015625)"/>
       <path id="TimesNewRomanPS-BoldMT-72" d="M 1428 2922 
L 1428 2259 
Q 1719 2713 1937 2861 
Q 2156 3009 2359 3009 
Q 2534 3009 2639 2901 
Q 2744 2794 2744 2597 
Q 2744 2388 2642 2272 
Q 2541 2156 2397 2156 
Q 2231 2156 2109 2262 
Q 1988 2369 1966 2381 
Q 1934 2400 1894 2400 
Q 1803 2400 1722 2331 
Q 1594 2225 1528 2028 
Q 1428 1725 1428 1359 
L 1428 688 
L 1431 513 
Q 1431 334 1453 284 
Q 1491 200 1564 161 
Q 1638 122 1813 113 
L 1813 0 
L 234 0 
L 234 113 
Q 425 128 492 217 
Q 559 306 559 688 
L 559 2303 
Q 559 2553 534 2622 
Q 503 2709 443 2750 
Q 384 2791 234 2806 
L 234 2922 
L 1428 2922 
z
" transform="scale(0.015625)"/>
       <path id="TimesNewRomanPS-BoldMT-6f" d="M 1594 3009 
Q 1975 3009 2303 2812 
Q 2631 2616 2801 2253 
Q 2972 1891 2972 1459 
Q 2972 838 2656 419 
Q 2275 -88 1603 -88 
Q 944 -88 587 375 
Q 231 838 231 1447 
Q 231 2075 595 2542 
Q 959 3009 1594 3009 
z
M 1606 2788 
Q 1447 2788 1333 2667 
Q 1219 2547 1183 2192 
Q 1147 1838 1147 1206 
Q 1147 872 1191 581 
Q 1225 359 1337 243 
Q 1450 128 1594 128 
Q 1734 128 1828 206 
Q 1950 313 1991 503 
Q 2053 800 2053 1703 
Q 2053 2234 1993 2432 
Q 1934 2631 1819 2722 
Q 1738 2788 1606 2788 
z
" transform="scale(0.015625)"/>
       <path id="TimesNewRomanPS-BoldMT-62" d="M 1347 4238 
L 1347 2628 
Q 1716 3009 2153 3009 
Q 2453 3009 2718 2832 
Q 2984 2656 3134 2331 
Q 3284 2006 3284 1581 
Q 3284 1103 3093 712 
Q 2903 322 2584 117 
Q 2266 -88 1856 -88 
Q 1619 -88 1434 -12 
Q 1250 63 1072 231 
L 588 -84 
L 481 -84 
L 481 3631 
Q 481 3884 459 3944 
Q 428 4031 361 4073 
Q 294 4116 134 4122 
L 134 4238 
L 1347 4238 
z
M 1347 2350 
L 1347 1050 
Q 1347 653 1366 544 
Q 1397 359 1515 245 
Q 1634 131 1819 131 
Q 1978 131 2092 222 
Q 2206 313 2282 581 
Q 2359 850 2359 1550 
Q 2359 2222 2191 2472 
Q 2069 2653 1863 2653 
Q 1594 2653 1347 2350 
z
" transform="scale(0.015625)"/>
       <path id="TimesNewRomanPS-BoldMT-61" d="M 1828 431 
Q 1294 -41 869 -41 
Q 619 -41 453 123 
Q 288 288 288 534 
Q 288 869 575 1136 
Q 863 1403 1828 1847 
L 1828 2141 
Q 1828 2472 1792 2558 
Q 1756 2644 1656 2708 
Q 1556 2772 1431 2772 
Q 1228 2772 1097 2681 
Q 1016 2625 1016 2550 
Q 1016 2484 1103 2388 
Q 1222 2253 1222 2128 
Q 1222 1975 1108 1867 
Q 994 1759 809 1759 
Q 613 1759 480 1878 
Q 347 1997 347 2156 
Q 347 2381 525 2586 
Q 703 2791 1022 2900 
Q 1341 3009 1684 3009 
Q 2100 3009 2342 2832 
Q 2584 2656 2656 2450 
Q 2700 2319 2700 1847 
L 2700 713 
Q 2700 513 2715 461 
Q 2731 409 2762 384 
Q 2794 359 2834 359 
Q 2916 359 3000 475 
L 3094 400 
Q 2938 169 2770 64 
Q 2603 -41 2391 -41 
Q 2141 -41 2000 76 
Q 1859 194 1828 431 
z
M 1828 659 
L 1828 1638 
Q 1450 1416 1266 1163 
Q 1144 994 1144 822 
Q 1144 678 1247 569 
Q 1325 484 1466 484 
Q 1622 484 1828 659 
z
" transform="scale(0.015625)"/>
       <path id="TimesNewRomanPS-BoldMT-69" d="M 919 4338 
Q 1122 4338 1262 4195 
Q 1403 4053 1403 3853 
Q 1403 3653 1261 3512 
Q 1119 3372 919 3372 
Q 719 3372 578 3512 
Q 438 3653 438 3853 
Q 438 4053 578 4195 
Q 719 4338 919 4338 
z
M 1356 2922 
L 1356 606 
Q 1356 297 1428 211 
Q 1500 125 1709 113 
L 1709 0 
L 131 0 
L 131 113 
Q 325 119 419 225 
Q 481 297 481 606 
L 481 2313 
Q 481 2622 409 2708 
Q 338 2794 131 2806 
L 131 2922 
L 1356 2922 
z
" transform="scale(0.015625)"/>
       <path id="TimesNewRomanPS-BoldMT-6c" d="M 1359 4238 
L 1359 606 
Q 1359 297 1431 211 
Q 1503 125 1713 113 
L 1713 0 
L 134 0 
L 134 113 
Q 328 119 422 225 
Q 484 297 484 606 
L 484 3631 
Q 484 3938 412 4023 
Q 341 4109 134 4122 
L 134 4238 
L 1359 4238 
z
" transform="scale(0.015625)"/>
       <path id="TimesNewRomanPS-BoldMT-74" d="M 1375 3991 
L 1375 2922 
L 2069 2922 
L 2069 2613 
L 1375 2613 
L 1375 809 
Q 1375 556 1398 482 
Q 1422 409 1481 364 
Q 1541 319 1591 319 
Q 1794 319 1975 628 
L 2069 559 
Q 1816 -41 1247 -41 
Q 969 -41 776 114 
Q 584 269 531 459 
Q 500 566 500 1034 
L 500 2613 
L 119 2613 
L 119 2722 
Q 513 3000 789 3306 
Q 1066 3613 1272 3991 
L 1375 3991 
z
" transform="scale(0.015625)"/>
       <path id="TimesNewRomanPS-BoldMT-79" d="M 1556 -119 
L 613 2047 
Q 400 2538 298 2650 
Q 197 2763 53 2806 
L 53 2922 
L 1606 2922 
L 1606 2806 
Q 1453 2800 1390 2747 
Q 1328 2694 1328 2619 
Q 1328 2500 1484 2150 
L 1984 1006 
L 2325 1891 
Q 2509 2363 2509 2547 
Q 2509 2663 2432 2731 
Q 2356 2800 2163 2806 
L 2163 2922 
L 3141 2922 
L 3141 2806 
Q 2997 2791 2906 2695 
Q 2816 2600 2603 2047 
L 1769 -119 
Q 1453 -931 1300 -1119 
Q 1084 -1381 759 -1381 
Q 500 -1381 339 -1232 
Q 178 -1084 178 -875 
Q 178 -694 289 -575 
Q 400 -456 563 -456 
Q 719 -456 814 -556 
Q 909 -656 913 -866 
Q 916 -984 941 -1019 
Q 966 -1053 1013 -1053 
Q 1088 -1053 1172 -963 
Q 1297 -831 1466 -363 
L 1556 -119 
z
" transform="scale(0.015625)"/>
      </defs>
      <use xlink:href="#TimesNewRomanPS-BoldMT-58"/>
      <use xlink:href="#TimesNewRomanPS-BoldMT-20" x="72.216797"/>
      <use xlink:href="#TimesNewRomanPS-BoldMT-50" x="97.216797"/>
      <use xlink:href="#TimesNewRomanPS-BoldMT-72" x="158.300781"/>
      <use xlink:href="#TimesNewRomanPS-BoldMT-6f" x="200.935547"/>
      <use xlink:href="#TimesNewRomanPS-BoldMT-62" x="250.935547"/>
      <use xlink:href="#TimesNewRomanPS-BoldMT-61" x="306.550781"/>
      <use xlink:href="#TimesNewRomanPS-BoldMT-62" x="356.550781"/>
      <use xlink:href="#TimesNewRomanPS-BoldMT-69" x="412.166016"/>
      <use xlink:href="#TimesNewRomanPS-BoldMT-6c" x="439.949219"/>
      <use xlink:href="#TimesNewRomanPS-BoldMT-69" x="467.732422"/>
      <use xlink:href="#TimesNewRomanPS-BoldMT-74" x="495.515625"/>
      <use xlink:href="#TimesNewRomanPS-BoldMT-79" x="528.816406"/>
     </g>
    </g>
   </g>
   <g id="line2d_19">
    <path d="M 86.4 178.443374 
L 156.263226 178.320237 
L 162.209032 177.825566 
L 165.925161 177.276667 
L 170.384516 176.902552 
L 171.870968 176.772549 
L 174.100645 176.432408 
L 174.843871 176.125402 
L 175.587097 175.943217 
L 176.330323 175.428642 
L 177.073548 175.117672 
L 177.816774 174.434754 
L 178.56 174.003962 
L 179.303226 173.22797 
L 180.046452 172.82764 
L 180.789677 171.968294 
L 181.532903 171.523474 
L 182.276129 170.73008 
L 183.019355 170.280081 
L 183.762581 169.441997 
L 184.505806 168.900518 
L 185.249032 168.057707 
L 185.992258 167.626518 
L 188.221935 165.791768 
L 188.965161 165.444391 
L 191.194839 163.452434 
L 191.938065 163.065112 
L 192.68129 162.403427 
L 193.424516 161.939934 
L 194.167742 161.147448 
L 194.910968 160.732217 
L 195.654194 160.030686 
L 196.397419 159.570775 
L 197.140645 158.927143 
L 197.883871 158.52781 
L 198.627097 158.000692 
L 200.113548 157.400827 
L 202.343226 157.178986 
L 203.086452 157.049067 
L 203.829677 157.079881 
L 209.032258 156.012151 
L 210.51871 155.887545 
L 213.491613 155.327602 
L 216.464516 155.09238 
L 219.437419 154.623149 
L 221.667097 154.210484 
L 222.410323 154.049364 
L 223.896774 153.876714 
L 224.64 153.746146 
L 225.383226 153.487907 
L 230.585806 153.325592 
L 232.072258 153.516222 
L 233.55871 154.077036 
L 234.301935 154.565177 
L 235.045161 154.803671 
L 235.788387 155.31753 
L 236.531613 155.411477 
L 237.274839 155.988744 
L 238.018065 156.151184 
L 238.76129 156.664055 
L 239.504516 156.681336 
L 240.247742 157.412608 
L 240.990968 157.775941 
L 241.734194 159.430777 
L 242.477419 160.193235 
L 243.220645 162.028161 
L 243.963871 162.46926 
L 244.707097 163.983298 
L 245.450323 164.530328 
L 246.193548 165.686648 
L 246.936774 166.091725 
L 247.68 166.786614 
L 248.423226 167.141346 
L 249.166452 167.891715 
L 250.652903 168.802651 
L 251.396129 168.945219 
L 252.139355 169.563319 
L 252.882581 169.977227 
L 253.625806 170.90106 
L 254.369032 171.242417 
L 255.112258 171.76 
L 255.855484 171.975591 
L 256.59871 172.369544 
L 257.341935 172.557213 
L 261.058065 174.616424 
L 262.544516 175.300244 
L 263.287742 175.486006 
L 264.030968 175.908079 
L 267.003871 176.748375 
L 272.949677 177.598074 
L 281.868387 178.198102 
L 299.705806 178.43984 
L 695.101935 178.406803 
L 701.790968 178.185815 
L 716.655484 177.133877 
L 721.114839 176.338949 
L 722.60129 175.867192 
L 723.344516 175.309434 
L 724.087742 174.938777 
L 724.830968 173.734855 
L 725.574194 172.899154 
L 726.317419 171.139909 
L 727.060645 170.20638 
L 727.803871 167.825099 
L 728.547097 166.386784 
L 729.290323 162.672449 
L 730.033548 161.503292 
L 730.776774 158.33512 
L 731.52 157.375224 
L 732.263226 154.819874 
L 733.006452 153.310363 
L 733.749677 150.300925 
L 734.492903 148.25082 
L 735.236129 145.024008 
L 735.979355 143.999377 
L 736.722581 141.77969 
L 738.209032 139.004436 
L 738.952258 138.586147 
L 739.695484 137.325542 
L 741.181935 133.213172 
L 741.925161 132.016384 
L 743.411613 128.415136 
L 744.154839 125.288457 
L 744.898065 122.918266 
L 747.127742 112.745034 
L 747.870968 110.081246 
L 748.614194 106.051139 
L 750.100645 98.980574 
L 751.587097 94.694399 
L 752.330323 93.546997 
L 753.073548 92.971266 
L 753.816774 93.370787 
L 755.303226 96.460706 
L 756.789677 101.174556 
L 759.019355 111.424825 
L 759.762581 113.905969 
L 760.505806 117.269952 
L 761.992258 122.361803 
L 762.735484 123.612725 
L 764.221935 127.928198 
L 764.965161 130.423745 
L 765.708387 131.529881 
L 766.451613 133.35939 
L 767.194839 134.544155 
L 767.938065 136.929372 
L 768.68129 138.229197 
L 769.424516 140.488249 
L 770.167742 141.911571 
L 770.910968 143.958767 
L 771.654194 145.184926 
L 772.397419 146.897881 
L 773.883871 148.863177 
L 774.627097 149.062644 
L 776.856774 152.315136 
L 777.6 153.070231 
L 778.343226 154.794992 
L 779.086452 155.922773 
L 779.829677 157.8884 
L 780.572903 158.92055 
L 781.316129 160.8527 
L 782.059355 162.26653 
L 782.802581 164.103495 
L 783.545806 165.228739 
L 784.289032 166.659775 
L 785.775484 168.916678 
L 786.51871 169.470485 
L 787.261935 170.218878 
L 788.005161 170.807475 
L 788.748387 171.842508 
L 789.491613 172.456072 
L 790.234839 173.265503 
L 791.72129 174.266214 
L 792.464516 174.493333 
L 793.207742 174.89896 
L 793.950968 175.131026 
L 794.694194 175.682972 
L 795.437419 175.893963 
L 796.180645 176.254699 
L 796.923871 176.393838 
L 797.667097 176.719448 
L 798.410323 176.834504 
L 799.153548 177.079889 
L 801.383226 177.432024 
L 803.612903 177.754675 
L 813.274839 178.323259 
L 819.220645 178.429762 
L 835.571613 178.443681 
L 846.72 178.443366 
L 846.72 178.443366 
" clip-path="url(#p7c19b909b7)" style="fill: none; stroke: #d62728; stroke-width: 2.5; stroke-linecap: square"/>
   </g>
   <g id="patch_3">
    <path d="M 86.4 178.444177 
L 86.4 8.57088 
" style="fill: none; stroke: #000000; stroke-width: 1.5; stroke-linejoin: miter; stroke-linecap: square"/>
   </g>
   <g id="patch_4">
    <path d="M 846.72 178.444177 
L 846.72 8.57088 
" style="fill: none; stroke: #000000; stroke-width: 1.5; stroke-linejoin: miter; stroke-linecap: square"/>
   </g>
   <g id="patch_5">
    <path d="M 86.4 178.444177 
L 846.72 178.444177 
" style="fill: none; stroke: #000000; stroke-width: 1.5; stroke-linejoin: miter; stroke-linecap: square"/>
   </g>
   <g id="patch_6">
    <path d="M 86.4 8.57088 
L 846.72 8.57088 
" style="fill: none; stroke: #000000; stroke-width: 1.5; stroke-linejoin: miter; stroke-linecap: square"/>
   </g>
  </g>
  <g id="axes_2">
   <g id="patch_7">
    <path d="M 86.4 385.6896 
L 846.72 385.6896 
L 846.72 215.816303 
L 86.4 215.816303 
z
" style="fill: #ffffff"/>
   </g>
   <g id="matplotlib.axis_3">
    <g id="xtick_7">
     <g id="line2d_20">
      <path d="M 86.4 385.6896 
L 86.4 215.816303 
" clip-path="url(#p303bc44237)" style="fill: none; stroke-dasharray: 2.96,1.28; stroke-dashoffset: 0; stroke: #b0b0b0; stroke-opacity: 0.18; stroke-width: 0.8"/>
     </g>
     <g id="line2d_21">
      <g>
       <use xlink:href="#ma27231dcb6" x="86.4" y="385.6896" style="stroke: #000000; stroke-width: 1.4"/>
      </g>
     </g>
     <g id="text_5">
      <!-- 0 -->
      <g transform="translate(82.4 404.2846) scale(0.16 -0.16)">
       <use xlink:href="#TimesNewRomanPS-BoldMT-30"/>
      </g>
     </g>
    </g>
    <g id="xtick_8">
     <g id="line2d_22">
      <path d="M 235.045161 385.6896 
L 235.045161 215.816303 
" clip-path="url(#p303bc44237)" style="fill: none; stroke-dasharray: 2.96,1.28; stroke-dashoffset: 0; stroke: #b0b0b0; stroke-opacity: 0.18; stroke-width: 0.8"/>
     </g>
     <g id="line2d_23">
      <g>
       <use xlink:href="#ma27231dcb6" x="235.045161" y="385.6896" style="stroke: #000000; stroke-width: 1.4"/>
      </g>
     </g>
     <g id="text_6">
      <!-- 200 -->
      <g transform="translate(223.045161 404.2846) scale(0.16 -0.16)">
       <defs>
        <path id="TimesNewRomanPS-BoldMT-32" d="M 2650 0 
L 156 0 
L 156 69 
Q 1303 1434 1548 1906 
Q 1794 2378 1794 2828 
Q 1794 3156 1591 3373 
Q 1388 3591 1094 3591 
Q 613 3591 347 3109 
L 231 3150 
Q 400 3750 744 4037 
Q 1088 4325 1538 4325 
Q 1859 4325 2125 4175 
Q 2391 4025 2541 3764 
Q 2691 3503 2691 3275 
Q 2691 2859 2459 2431 
Q 2144 1853 1081 819 
L 1997 819 
Q 2334 819 2436 847 
Q 2538 875 2603 942 
Q 2669 1009 2775 1225 
L 2888 1225 
L 2650 0 
z
" transform="scale(0.015625)"/>
       </defs>
       <use xlink:href="#TimesNewRomanPS-BoldMT-32"/>
       <use xlink:href="#TimesNewRomanPS-BoldMT-30" x="50"/>
       <use xlink:href="#TimesNewRomanPS-BoldMT-30" x="100"/>
      </g>
     </g>
    </g>
    <g id="xtick_9">
     <g id="line2d_24">
      <path d="M 383.690323 385.6896 
L 383.690323 215.816303 
" clip-path="url(#p303bc44237)" style="fill: none; stroke-dasharray: 2.96,1.28; stroke-dashoffset: 0; stroke: #b0b0b0; stroke-opacity: 0.18; stroke-width: 0.8"/>
     </g>
     <g id="line2d_25">
      <g>
       <use xlink:href="#ma27231dcb6" x="383.690323" y="385.6896" style="stroke: #000000; stroke-width: 1.4"/>
      </g>
     </g>
     <g id="text_7">
      <!-- 400 -->
      <g transform="translate(371.690323 404.2846) scale(0.16 -0.16)">
       <defs>
        <path id="TimesNewRomanPS-BoldMT-34" d="M 159 1597 
L 2172 4325 
L 2553 4325 
L 2553 1597 
L 2941 1597 
L 2941 950 
L 2553 950 
L 2553 0 
L 1694 0 
L 1694 950 
L 159 950 
L 159 1597 
z
M 463 1597 
L 1694 1597 
L 1694 3269 
L 463 1597 
z
" transform="scale(0.015625)"/>
       </defs>
       <use xlink:href="#TimesNewRomanPS-BoldMT-34"/>
       <use xlink:href="#TimesNewRomanPS-BoldMT-30" x="50"/>
       <use xlink:href="#TimesNewRomanPS-BoldMT-30" x="100"/>
      </g>
     </g>
    </g>
    <g id="xtick_10">
     <g id="line2d_26">
      <path d="M 532.335484 385.6896 
L 532.335484 215.816303 
" clip-path="url(#p303bc44237)" style="fill: none; stroke-dasharray: 2.96,1.28; stroke-dashoffset: 0; stroke: #b0b0b0; stroke-opacity: 0.18; stroke-width: 0.8"/>
     </g>
     <g id="line2d_27">
      <g>
       <use xlink:href="#ma27231dcb6" x="532.335484" y="385.6896" style="stroke: #000000; stroke-width: 1.4"/>
      </g>
     </g>
     <g id="text_8">
      <!-- 600 -->
      <g transform="translate(520.335484 404.2846) scale(0.16 -0.16)">
       <defs>
        <path id="TimesNewRomanPS-BoldMT-36" d="M 3006 4325 
L 3006 4238 
Q 2441 4094 2098 3867 
Q 1756 3641 1557 3317 
Q 1359 2994 1250 2516 
Q 1388 2609 1478 2638 
Q 1681 2700 1888 2700 
Q 2363 2700 2680 2354 
Q 2997 2009 2997 1413 
Q 2997 994 2825 644 
Q 2653 294 2337 103 
Q 2022 -88 1663 -88 
Q 1272 -88 940 126 
Q 609 341 423 753 
Q 238 1166 238 1650 
Q 238 2363 580 2977 
Q 922 3591 1551 3955 
Q 2181 4319 3006 4325 
z
M 1209 2263 
Q 1184 1831 1184 1631 
Q 1184 1200 1267 797 
Q 1350 394 1494 231 
Q 1597 116 1738 116 
Q 1881 116 1993 283 
Q 2106 450 2106 963 
Q 2106 1825 1897 2153 
Q 1763 2366 1534 2366 
Q 1409 2366 1209 2263 
z
" transform="scale(0.015625)"/>
       </defs>
       <use xlink:href="#TimesNewRomanPS-BoldMT-36"/>
       <use xlink:href="#TimesNewRomanPS-BoldMT-30" x="50"/>
       <use xlink:href="#TimesNewRomanPS-BoldMT-30" x="100"/>
      </g>
     </g>
    </g>
    <g id="xtick_11">
     <g id="line2d_28">
      <path d="M 680.980645 385.6896 
L 680.980645 215.816303 
" clip-path="url(#p303bc44237)" style="fill: none; stroke-dasharray: 2.96,1.28; stroke-dashoffset: 0; stroke: #b0b0b0; stroke-opacity: 0.18; stroke-width: 0.8"/>
     </g>
     <g id="line2d_29">
      <g>
       <use xlink:href="#ma27231dcb6" x="680.980645" y="385.6896" style="stroke: #000000; stroke-width: 1.4"/>
      </g>
     </g>
     <g id="text_9">
      <!-- 800 -->
      <g transform="translate(668.980645 404.2846) scale(0.16 -0.16)">
       <defs>
        <path id="TimesNewRomanPS-BoldMT-38" d="M 2181 2394 
Q 2628 2066 2801 1783 
Q 2975 1500 2975 1134 
Q 2975 622 2589 267 
Q 2203 -88 1541 -88 
Q 913 -88 569 221 
Q 225 531 225 978 
Q 225 1319 423 1575 
Q 622 1831 1084 2044 
Q 581 2428 439 2672 
Q 297 2916 297 3238 
Q 297 3663 658 3986 
Q 1019 4309 1647 4309 
Q 2253 4309 2579 4023 
Q 2906 3738 2906 3338 
Q 2906 3038 2729 2808 
Q 2553 2578 2181 2394 
z
M 1944 2553 
Q 2059 2709 2115 2903 
Q 2172 3097 2172 3328 
Q 2172 3734 1997 3950 
Q 1866 4116 1634 4116 
Q 1425 4116 1278 3964 
Q 1131 3813 1131 3588 
Q 1131 3359 1295 3114 
Q 1459 2869 1944 2553 
z
M 1319 1894 
Q 1222 1806 1181 1734 
Q 1119 1625 1069 1415 
Q 1019 1206 1019 978 
Q 1019 684 1094 486 
Q 1169 288 1308 200 
Q 1447 113 1594 113 
Q 1822 113 1978 280 
Q 2134 447 2134 738 
Q 2134 1344 1319 1894 
z
" transform="scale(0.015625)"/>
       </defs>
       <use xlink:href="#TimesNewRomanPS-BoldMT-38"/>
       <use xlink:href="#TimesNewRomanPS-BoldMT-30" x="50"/>
       <use xlink:href="#TimesNewRomanPS-BoldMT-30" x="100"/>
      </g>
     </g>
    </g>
    <g id="xtick_12">
     <g id="line2d_30">
      <path d="M 829.625806 385.6896 
L 829.625806 215.816303 
" clip-path="url(#p303bc44237)" style="fill: none; stroke-dasharray: 2.96,1.28; stroke-dashoffset: 0; stroke: #b0b0b0; stroke-opacity: 0.18; stroke-width: 0.8"/>
     </g>
     <g id="line2d_31">
      <g>
       <use xlink:href="#ma27231dcb6" x="829.625806" y="385.6896" style="stroke: #000000; stroke-width: 1.4"/>
      </g>
     </g>
     <g id="text_10">
      <!-- 1000 -->
      <g transform="translate(813.625806 404.2846) scale(0.16 -0.16)">
       <use xlink:href="#TimesNewRomanPS-BoldMT-31"/>
       <use xlink:href="#TimesNewRomanPS-BoldMT-30" x="50"/>
       <use xlink:href="#TimesNewRomanPS-BoldMT-30" x="100"/>
       <use xlink:href="#TimesNewRomanPS-BoldMT-30" x="150"/>
      </g>
     </g>
    </g>
    <g id="text_11">
     <!-- Sample -->
     <g transform="translate(441.225 422.5421) scale(0.16 -0.16)">
      <defs>
       <path id="TimesNewRomanPS-BoldMT-53" d="M 3006 4334 
L 3041 2922 
L 2913 2922 
Q 2822 3453 2467 3776 
Q 2113 4100 1700 4100 
Q 1381 4100 1195 3929 
Q 1009 3759 1009 3538 
Q 1009 3397 1075 3288 
Q 1166 3141 1366 2997 
Q 1513 2894 2044 2631 
Q 2788 2266 3047 1941 
Q 3303 1616 3303 1197 
Q 3303 666 2889 283 
Q 2475 -100 1838 -100 
Q 1638 -100 1459 -59 
Q 1281 -19 1013 94 
Q 863 156 766 156 
Q 684 156 593 93 
Q 503 31 447 -97 
L 331 -97 
L 331 1503 
L 447 1503 
Q 584 828 976 473 
Q 1369 119 1822 119 
Q 2172 119 2380 309 
Q 2588 500 2588 753 
Q 2588 903 2508 1043 
Q 2428 1184 2265 1311 
Q 2103 1438 1691 1641 
Q 1113 1925 859 2125 
Q 606 2325 470 2572 
Q 334 2819 334 3116 
Q 334 3622 706 3978 
Q 1078 4334 1644 4334 
Q 1850 4334 2044 4284 
Q 2191 4247 2402 4145 
Q 2613 4044 2697 4044 
Q 2778 4044 2825 4094 
Q 2872 4144 2913 4334 
L 3006 4334 
z
" transform="scale(0.015625)"/>
       <path id="TimesNewRomanPS-BoldMT-6d" d="M 1428 2922 
L 1428 2538 
Q 1669 2800 1873 2904 
Q 2078 3009 2322 3009 
Q 2603 3009 2793 2878 
Q 2984 2747 3088 2478 
Q 3338 2759 3567 2884 
Q 3797 3009 4047 3009 
Q 4350 3009 4529 2870 
Q 4709 2731 4779 2517 
Q 4850 2303 4850 1834 
L 4850 638 
Q 4850 300 4911 219 
Q 4972 138 5166 113 
L 5166 0 
L 3656 0 
L 3656 113 
Q 3834 128 3919 250 
Q 3975 334 3975 638 
L 3975 1894 
Q 3975 2284 3944 2390 
Q 3913 2497 3845 2548 
Q 3778 2600 3688 2600 
Q 3553 2600 3415 2501 
Q 3278 2403 3138 2206 
L 3138 638 
Q 3138 322 3191 241 
Q 3263 125 3466 113 
L 3466 0 
L 1953 0 
L 1953 113 
Q 2075 119 2145 173 
Q 2216 228 2239 304 
Q 2263 381 2263 638 
L 2263 1894 
Q 2263 2291 2231 2391 
Q 2200 2491 2126 2547 
Q 2053 2603 1969 2603 
Q 1844 2603 1741 2538 
Q 1594 2441 1428 2206 
L 1428 638 
Q 1428 328 1489 229 
Q 1550 131 1744 113 
L 1744 0 
L 238 0 
L 238 113 
Q 422 131 500 231 
Q 553 300 553 638 
L 553 2288 
Q 553 2619 492 2700 
Q 431 2781 238 2806 
L 238 2922 
L 1428 2922 
z
" transform="scale(0.015625)"/>
       <path id="TimesNewRomanPS-BoldMT-70" d="M 1347 297 
L 1347 -791 
Q 1347 -1016 1383 -1097 
Q 1419 -1178 1494 -1215 
Q 1569 -1253 1788 -1253 
L 1788 -1369 
L 122 -1369 
L 122 -1253 
Q 316 -1247 409 -1144 
Q 472 -1072 472 -772 
L 472 2313 
Q 472 2622 400 2708 
Q 328 2794 122 2806 
L 122 2922 
L 1347 2922 
L 1347 2538 
Q 1500 2763 1659 2863 
Q 1888 3009 2156 3009 
Q 2478 3009 2742 2806 
Q 3006 2603 3143 2245 
Q 3281 1888 3281 1475 
Q 3281 1031 3139 664 
Q 2997 297 2726 104 
Q 2456 -88 2125 -88 
Q 1884 -88 1675 19 
Q 1519 100 1347 297 
z
M 1347 613 
Q 1616 231 1922 231 
Q 2091 231 2200 409 
Q 2363 672 2363 1409 
Q 2363 2166 2184 2444 
Q 2066 2628 1866 2628 
Q 1550 2628 1347 2172 
L 1347 613 
z
" transform="scale(0.015625)"/>
       <path id="TimesNewRomanPS-BoldMT-65" d="M 2691 1566 
L 1088 1566 
Q 1116 984 1397 647 
Q 1613 388 1916 388 
Q 2103 388 2256 492 
Q 2409 597 2584 869 
L 2691 800 
Q 2453 316 2165 114 
Q 1878 -88 1500 -88 
Q 850 -88 516 413 
Q 247 816 247 1413 
Q 247 2144 642 2576 
Q 1038 3009 1569 3009 
Q 2013 3009 2339 2645 
Q 2666 2281 2691 1566 
z
M 1922 1775 
Q 1922 2278 1867 2465 
Q 1813 2653 1697 2750 
Q 1631 2806 1522 2806 
Q 1359 2806 1256 2647 
Q 1072 2369 1072 1884 
L 1072 1775 
L 1922 1775 
z
" transform="scale(0.015625)"/>
      </defs>
      <use xlink:href="#TimesNewRomanPS-BoldMT-53"/>
      <use xlink:href="#TimesNewRomanPS-BoldMT-61" x="55.615234"/>
      <use xlink:href="#TimesNewRomanPS-BoldMT-6d" x="105.615234"/>
      <use xlink:href="#TimesNewRomanPS-BoldMT-70" x="188.916016"/>
      <use xlink:href="#TimesNewRomanPS-BoldMT-6c" x="244.53125"/>
      <use xlink:href="#TimesNewRomanPS-BoldMT-65" x="272.314453"/>
     </g>
    </g>
   </g>
   <g id="matplotlib.axis_4">
    <g id="ytick_4">
     <g id="line2d_32">
      <path d="M 86.4 385.6896 
L 846.72 385.6896 
" clip-path="url(#p303bc44237)" style="fill: none; stroke-dasharray: 2.96,1.28; stroke-dashoffset: 0; stroke: #b0b0b0; stroke-opacity: 0.18; stroke-width: 0.8"/>
     </g>
     <g id="line2d_33">
      <g>
       <use xlink:href="#mf0de79d70f" x="86.4" y="385.6896" style="stroke: #000000; stroke-width: 1.4"/>
      </g>
     </g>
     <g id="text_12">
      <!-- 0.00 -->
      <g transform="translate(50.4 390.9871) scale(0.16 -0.16)">
       <use xlink:href="#TimesNewRomanPS-BoldMT-30"/>
       <use xlink:href="#TimesNewRomanPS-BoldMT-2e" x="50"/>
       <use xlink:href="#TimesNewRomanPS-BoldMT-30" x="75"/>
       <use xlink:href="#TimesNewRomanPS-BoldMT-30" x="125"/>
      </g>
     </g>
    </g>
    <g id="ytick_5">
     <g id="line2d_34">
      <path d="M 86.4 300.752951 
L 846.72 300.752951 
" clip-path="url(#p303bc44237)" style="fill: none; stroke-dasharray: 2.96,1.28; stroke-dashoffset: 0; stroke: #b0b0b0; stroke-opacity: 0.18; stroke-width: 0.8"/>
     </g>
     <g id="line2d_35">
      <g>
       <use xlink:href="#mf0de79d70f" x="86.4" y="300.752951" style="stroke: #000000; stroke-width: 1.4"/>
      </g>
     </g>
     <g id="text_13">
      <!-- 0.50 -->
      <g transform="translate(50.4 306.050451) scale(0.16 -0.16)">
       <use xlink:href="#TimesNewRomanPS-BoldMT-30"/>
       <use xlink:href="#TimesNewRomanPS-BoldMT-2e" x="50"/>
       <use xlink:href="#TimesNewRomanPS-BoldMT-35" x="75"/>
       <use xlink:href="#TimesNewRomanPS-BoldMT-30" x="125"/>
      </g>
     </g>
    </g>
    <g id="ytick_6">
     <g id="line2d_36">
      <path d="M 86.4 215.816303 
L 846.72 215.816303 
" clip-path="url(#p303bc44237)" style="fill: none; stroke-dasharray: 2.96,1.28; stroke-dashoffset: 0; stroke: #b0b0b0; stroke-opacity: 0.18; stroke-width: 0.8"/>
     </g>
     <g id="line2d_37">
      <g>
       <use xlink:href="#mf0de79d70f" x="86.4" y="215.816303" style="stroke: #000000; stroke-width: 1.4"/>
      </g>
     </g>
     <g id="text_14">
      <!-- 1.00 -->
      <g transform="translate(50.4 221.113803) scale(0.16 -0.16)">
       <use xlink:href="#TimesNewRomanPS-BoldMT-31"/>
       <use xlink:href="#TimesNewRomanPS-BoldMT-2e" x="50"/>
       <use xlink:href="#TimesNewRomanPS-BoldMT-30" x="75"/>
       <use xlink:href="#TimesNewRomanPS-BoldMT-30" x="125"/>
      </g>
     </g>
    </g>
    <g id="text_15">
     <!-- Y Probability -->
     <g transform="translate(42.9475 346.756701) rotate(-90) scale(0.16 -0.16)">
      <defs>
       <path id="TimesNewRomanPS-BoldMT-59" d="M 4550 4238 
L 4550 4122 
Q 4341 4094 4228 4000 
Q 4072 3869 3734 3284 
L 2816 1750 
L 2816 725 
Q 2816 397 2850 317 
Q 2884 238 2986 177 
Q 3088 116 3256 116 
L 3494 116 
L 3494 0 
L 1116 0 
L 1116 116 
L 1338 116 
Q 1525 116 1634 181 
Q 1716 225 1763 331 
Q 1797 406 1797 725 
L 1797 1575 
L 800 3391 
Q 503 3928 381 4023 
Q 259 4119 56 4122 
L 56 4238 
L 2088 4238 
L 2088 4122 
L 1997 4122 
Q 1813 4122 1739 4069 
Q 1666 4016 1666 3956 
Q 1666 3844 1916 3391 
L 2681 1988 
L 3444 3266 
Q 3728 3734 3728 3888 
Q 3728 3972 3647 4028 
Q 3541 4106 3256 4122 
L 3256 4238 
L 4550 4238 
z
" transform="scale(0.015625)"/>
      </defs>
      <use xlink:href="#TimesNewRomanPS-BoldMT-59"/>
      <use xlink:href="#TimesNewRomanPS-BoldMT-20" x="68.466797"/>
      <use xlink:href="#TimesNewRomanPS-BoldMT-50" x="93.466797"/>
      <use xlink:href="#TimesNewRomanPS-BoldMT-72" x="154.550781"/>
      <use xlink:href="#TimesNewRomanPS-BoldMT-6f" x="197.185547"/>
      <use xlink:href="#TimesNewRomanPS-BoldMT-62" x="247.185547"/>
      <use xlink:href="#TimesNewRomanPS-BoldMT-61" x="302.800781"/>
      <use xlink:href="#TimesNewRomanPS-BoldMT-62" x="352.800781"/>
      <use xlink:href="#TimesNewRomanPS-BoldMT-69" x="408.416016"/>
      <use xlink:href="#TimesNewRomanPS-BoldMT-6c" x="436.199219"/>
      <use xlink:href="#TimesNewRomanPS-BoldMT-69" x="463.982422"/>
      <use xlink:href="#TimesNewRomanPS-BoldMT-74" x="491.765625"/>
      <use xlink:href="#TimesNewRomanPS-BoldMT-79" x="525.066406"/>
     </g>
    </g>
   </g>
   <g id="line2d_38">
    <path d="M 86.4 385.689118 
L 160.722581 385.481434 
L 163.695484 384.996928 
L 164.43871 384.785698 
L 166.668387 384.526959 
L 168.154839 384.32528 
L 172.614194 383.584863 
L 174.100645 383.161925 
L 174.843871 382.65105 
L 175.587097 382.325232 
L 176.330323 381.854422 
L 177.073548 381.653869 
L 179.303226 380.135314 
L 180.046452 379.951896 
L 180.789677 379.397815 
L 182.276129 378.751539 
L 183.019355 378.640209 
L 185.992258 377.433513 
L 186.735484 376.787547 
L 187.47871 376.318931 
L 188.221935 375.608769 
L 188.965161 375.316603 
L 191.194839 373.246467 
L 191.938065 373.073649 
L 194.167742 371.758281 
L 194.910968 371.646636 
L 197.140645 370.287582 
L 197.883871 370.153423 
L 200.113548 368.658342 
L 200.856774 368.453679 
L 203.086452 367.001167 
L 203.829677 366.84512 
L 204.572903 366.38148 
L 205.316129 366.200519 
L 206.059355 365.841644 
L 207.545806 365.524957 
L 208.289032 365.312423 
L 209.032258 364.955169 
L 214.234839 364.117171 
L 215.72129 363.807205 
L 217.950968 363.51373 
L 223.896774 362.467487 
L 226.869677 362.328315 
L 227.612903 362.340668 
L 228.356129 362.598234 
L 229.099355 362.615001 
L 229.842581 362.848631 
L 230.585806 362.828327 
L 231.329032 363.075424 
L 232.072258 363.100585 
L 233.55871 363.51998 
L 234.301935 364.230546 
L 235.045161 364.425204 
L 235.788387 364.83665 
L 236.531613 364.983697 
L 237.274839 365.839271 
L 238.018065 366.326403 
L 238.76129 367.023311 
L 239.504516 367.025007 
L 240.247742 367.779091 
L 240.990968 368.04509 
L 241.734194 368.832802 
L 242.477419 368.955927 
L 243.220645 369.806396 
L 243.963871 370.175166 
L 244.707097 371.398201 
L 245.450323 371.875497 
L 246.193548 373.450766 
L 246.936774 374.13305 
L 247.68 375.129024 
L 248.423226 375.463507 
L 249.166452 376.419975 
L 250.652903 377.766597 
L 251.396129 378.018845 
L 252.139355 378.583609 
L 252.882581 378.927982 
L 253.625806 379.518546 
L 254.369032 379.60498 
L 255.855484 380.041491 
L 256.59871 380.334432 
L 257.341935 380.495064 
L 258.085161 380.955171 
L 258.828387 381.223214 
L 259.571613 381.717567 
L 260.314839 381.918818 
L 261.80129 382.830531 
L 263.287742 383.177163 
L 264.030968 383.57022 
L 266.260645 384.067566 
L 269.233548 384.402857 
L 270.72 384.670434 
L 274.436129 385.155922 
L 278.895484 385.269141 
L 286.327742 385.625621 
L 298.219355 385.687124 
L 696.588387 385.653314 
L 704.763871 385.458211 
L 707.736774 385.173472 
L 716.655484 383.774807 
L 717.39871 383.556645 
L 718.141935 383.508425 
L 721.114839 382.331841 
L 721.858065 381.696804 
L 722.60129 381.236294 
L 723.344516 380.41627 
L 724.087742 380.159691 
L 726.317419 375.474624 
L 727.803871 373.920853 
L 728.547097 372.50902 
L 729.290323 369.129954 
L 730.033548 369.300205 
L 730.776774 367.519282 
L 731.52 366.439512 
L 733.006452 363.669466 
L 734.492903 358.761956 
L 735.236129 354.585531 
L 735.979355 352.954183 
L 736.722581 349.861229 
L 737.465806 347.442528 
L 738.209032 344.311356 
L 738.952258 343.829757 
L 739.695484 342.118475 
L 741.181935 339.465516 
L 741.925161 338.833868 
L 742.668387 337.128586 
L 743.411613 336.310907 
L 744.154839 333.836912 
L 744.898065 332.72065 
L 745.64129 330.816503 
L 747.127742 325.32185 
L 747.870968 323.085727 
L 749.357419 317.778037 
L 750.100645 315.229489 
L 750.843871 314.047996 
L 752.330323 312.276788 
L 753.073548 312.021105 
L 753.816774 312.075599 
L 755.303226 314.2533 
L 756.789677 317.422115 
L 757.532903 319.575246 
L 759.762581 324.838785 
L 761.249032 330.676648 
L 761.992258 331.698072 
L 762.735484 332.91874 
L 764.221935 336.702126 
L 764.965161 338.177662 
L 765.708387 338.86393 
L 766.451613 340.304458 
L 767.194839 341.212348 
L 767.938065 342.706731 
L 768.68129 343.573821 
L 773.140645 356.118927 
L 773.883871 358.479854 
L 774.627097 359.336161 
L 775.370323 361.423076 
L 776.113548 362.565907 
L 776.856774 364.319719 
L 777.6 365.113655 
L 778.343226 366.987852 
L 779.086452 367.806843 
L 779.829677 369.066513 
L 780.572903 369.3277 
L 781.316129 371.222086 
L 782.059355 372.325328 
L 782.802581 373.807124 
L 783.545806 374.457451 
L 784.289032 375.800675 
L 785.032258 376.728865 
L 785.775484 377.892304 
L 786.51871 378.308663 
L 787.261935 379.137471 
L 788.005161 379.732544 
L 788.748387 380.649094 
L 789.491613 380.917432 
L 790.234839 381.566675 
L 791.72129 382.608142 
L 792.464516 382.894239 
L 793.207742 383.340061 
L 793.950968 383.560109 
L 794.694194 383.990439 
L 800.64 385.178944 
L 814.018065 385.631763 
L 822.936774 385.688142 
L 846.72 385.688326 
L 846.72 385.688326 
" clip-path="url(#p303bc44237)" style="fill: none; stroke: #d62728; stroke-width: 2.5; stroke-linecap: square"/>
   </g>
   <g id="patch_8">
    <path d="M 86.4 385.6896 
L 86.4 215.816303 
" style="fill: none; stroke: #000000; stroke-width: 1.5; stroke-linejoin: miter; stroke-linecap: square"/>
   </g>
   <g id="patch_9">
    <path d="M 846.72 385.6896 
L 846.72 215.816303 
" style="fill: none; stroke: #000000; stroke-width: 1.5; stroke-linejoin: miter; stroke-linecap: square"/>
   </g>
   <g id="patch_10">
    <path d="M 86.4 385.6896 
L 846.72 385.6896 
" style="fill: none; stroke: #000000; stroke-width: 1.5; stroke-linejoin: miter; stroke-linecap: square"/>
   </g>
   <g id="patch_11">
    <path d="M 86.4 215.816303 
L 846.72 215.816303 
" style="fill: none; stroke: #000000; stroke-width: 1.5; stroke-linejoin: miter; stroke-linecap: square"/>
   </g>
  </g>
 </g>
 <defs>
  <clipPath id="p7c19b909b7">
   <rect x="86.4" y="8.57088" width="760.32" height="169.873297"/>
  </clipPath>
  <clipPath id="p303bc44237">
   <rect x="86.4" y="215.816303" width="760.32" height="169.873297"/>
  </clipPath>
 </defs>
</svg>
